<svg width="36" height="36" fill="none" xmlns="http://www.w3.org/2000/svg"><path d="M11.406 7.2h13.188A1.199 1.199 0 0 0 25.793 6V3.6A3.602 3.602 0 0 0 22.196 0h-8.392a3.595 3.595 0 0 0-3.597 3.6V6a1.2 1.2 0 0 0 1.199 1.2ZM31.188 3H29.99a.563.563 0 0 0-.6.6V6a4.802 4.802 0 0 1-4.795 4.8H11.406a4.794 4.794 0 0 1-3.391-1.406A4.802 4.802 0 0 1 6.61 6V3.6a.564.564 0 0 0-.6-.6H4.813a3.595 3.595 0 0 0-3.597 3.6v25.8A3.602 3.602 0 0 0 4.812 36h26.376a3.595 3.595 0 0 0 3.597-3.6V6.6A3.601 3.601 0 0 0 31.188 3ZM11.406 28.8a1.2 1.2 0 0 1-1.199 1.2H9.008a1.198 1.198 0 0 1-1.199-1.2v-1.2a1.2 1.2 0 0 1 1.199-1.2h1.199a1.198 1.198 0 0 1 1.199 1.2v1.2Zm0-6a1.2 1.2 0 0 1-1.199 1.2H9.008a1.198 1.198 0 0 1-1.199-1.2v-1.2a1.2 1.2 0 0 1 1.199-1.2h1.199a1.198 1.198 0 0 1 1.199 1.2v1.2Zm0-6a1.2 1.2 0 0 1-1.199 1.2H9.008a1.198 1.198 0 0 1-1.199-1.2v-1.2a1.2 1.2 0 0 1 1.199-1.2h1.199a1.198 1.198 0 0 1 1.199 1.2v1.2Zm16.785 12a1.2 1.2 0 0 1-1.199 1.2h-11.99a1.198 1.198 0 0 1-1.198-1.2v-1.2a1.2 1.2 0 0 1 1.199-1.2h11.989a1.198 1.198 0 0 1 1.199 1.2v1.2Zm0-6a1.2 1.2 0 0 1-1.199 1.2h-11.99a1.198 1.198 0 0 1-1.198-1.2v-1.2a1.2 1.2 0 0 1 1.199-1.2h11.989a1.198 1.198 0 0 1 1.199 1.2v1.2Zm0-6a1.2 1.2 0 0 1-1.199 1.2h-11.99a1.198 1.198 0 0 1-1.198-1.2v-1.2a1.2 1.2 0 0 1 1.199-1.2h11.989a1.198 1.198 0 0 1 1.199 1.2v1.2Z" fill="#E37828"/></svg>