<svg width="36" height="36" fill="none" xmlns="http://www.w3.org/2000/svg"><path fill-rule="evenodd" clip-rule="evenodd" d="M7.868 0a3.376 3.376 0 0 0-3.377 3.375v29.25A3.376 3.376 0 0 0 7.868 36h20.264a3.376 3.376 0 0 0 3.377-3.375V3.375A3.376 3.376 0 0 0 28.132 0H7.868ZM23.3 9.795a1.125 1.125 0 1 0-1.592-1.59l-9.006 9a1.125 1.125 0 1 0 1.592 1.59l9.006-9Zm-6.425.33a2.25 2.25 0 1 1-4.501-.002 2.25 2.25 0 0 1 4.501.002Zm4.503 9a2.25 2.25 0 1 0 .002-4.501 2.25 2.25 0 0 0-.002 4.501ZM10.12 24.75c0-.621.504-1.125 1.125-1.125h13.51a1.126 1.126 0 1 1 0 2.25h-13.51a1.126 1.126 0 0 1-1.125-1.125Zm1.125 3.375a1.126 1.126 0 1 0 0 2.25h13.51a1.126 1.126 0 1 0 0-2.25h-13.51Z" fill="#E37828"/></svg>