<svg width="36" height="36" fill="none" xmlns="http://www.w3.org/2000/svg"><path fill-rule="evenodd" clip-rule="evenodd" d="M18 0c-1.552 0-4.147.596-6.588 1.26a137.288 137.288 0 0 0-6.496 1.957 3.465 3.465 0 0 0-2.349 2.84C1.227 16.13 4.338 23.596 8.113 28.534a26.496 26.496 0 0 0 5.664 5.52 15.963 15.963 0 0 0 2.358 1.406c.63.297 1.307.54 1.865.54s1.233-.243 1.865-.54c.825-.4 1.614-.871 2.358-1.406a26.492 26.492 0 0 0 5.664-5.52c3.775-4.938 6.887-12.404 5.546-22.477a3.468 3.468 0 0 0-2.35-2.842 140.512 140.512 0 0 0-6.495-1.957C22.147.598 19.552 0 18 0Zm4.828 11.579a1.127 1.127 0 0 1 1.594 1.592l-6.75 6.75a1.124 1.124 0 0 1-1.594 0l-3.374-3.374a1.127 1.127 0 1 1 1.592-1.594l2.579 2.581 5.953-5.955Z" fill="#E37828"/></svg>