<svg width="170" height="60" fill="none" xmlns="http://www.w3.org/2000/svg"><path d="m30.338 30.116-8.42-8.084-8.634 8.084h17.054Zm1.295 1.277H11.845l-4.246 3.97H36.31l-4.677-3.97Zm6.692 5.957-.864-.852-31.085-.07-.863.921v3.546h32.812v-3.546Zm0 8.65v-4.255H5.513V46h32.812Z" fill="#1E1E1E"/><path d="M21.791 19.62 2.805 37.19 0 34.203l5.322-5.051V17.628h5.897v6.26L21.791 14 42 32.993l-2.733 2.917-17.476-16.29ZM51.46 38l5.08-14.42h3.82L65.44 38h-3.8l-.84-2.68h-4.72L55.24 38h-3.78Zm6.58-9-1.16 3.64H60L58.86 29l-.2-.78a14.36 14.36 0 0 1-.18-1.04 13.53 13.53 0 0 1-.04-1.12c0 .947-.067 1.667-.2 2.16a4.904 4.904 0 0 1-.2.78Zm7.631 9V23.58h5.02c.787 0 1.413.04 1.88.12 1.093.2 1.94.707 2.54 1.52.613.8.92 1.833.92 3.1 0 1.493-.413 2.633-1.24 3.42-.813.787-2 1.18-3.56 1.18h-1.88V38h-3.68Zm3.68-11.46v3.42h1.02c.6 0 1.073-.153 1.42-.46.347-.32.52-.753.52-1.3 0-1.107-.633-1.66-1.9-1.66h-1.06ZM77.038 38V23.58h8.48v2.9h-4.8v2.6h4.16v2.88h-4.16v3.14h4.96V38h-8.64Zm8.8 0 4.66-7.68-4.08-6.74h4.22l1.42 2.68c.2.373.36.793.48 1.26.067.333.134.84.2 1.52l.24-1.52c.054-.227.12-.453.2-.68.08-.227.167-.42.26-.58l1.46-2.68h4.18l-4.08 6.74 4.66 7.68h-4.26l-2.02-3.84c-.293-.56-.52-1.427-.68-2.6 0 .52-.06.993-.18 1.42a5.967 5.967 0 0 1-.44 1.18L90.099 38h-4.26Zm19.248-1.84 1.3-2.9c1.187 1.373 2.393 2.06 3.62 2.06.52 0 .96-.14 1.32-.42.36-.28.54-.647.54-1.1 0-.347-.16-.64-.48-.88-.24-.16-.853-.407-1.84-.74-1.2-.4-2.04-.8-2.52-1.2-.907-.76-1.36-1.76-1.36-3 0-1.32.5-2.427 1.5-3.32 1.013-.907 2.28-1.36 3.8-1.36 1.627 0 3.06.533 4.3 1.6l-1.46 2.66c-1-.88-1.927-1.32-2.78-1.32-.427 0-.787.12-1.08.36-.293.227-.44.52-.44.88 0 .347.133.633.4.86.187.173.813.433 1.88.78 1.08.333 1.88.72 2.4 1.16.893.733 1.34 1.76 1.34 3.08 0 1.44-.5 2.627-1.5 3.56-1 .933-2.3 1.4-3.9 1.4-2 0-3.68-.72-5.04-2.16ZM116.765 38V23.58h3.68V38h-3.68Zm5.254 0V23.58h4.74c.84 0 1.64.08 2.4.24 1.506.32 2.72 1.1 3.64 2.34.92 1.24 1.38 2.733 1.38 4.48 0 2.16-.66 3.927-1.98 5.3-1.32 1.373-3.034 2.06-5.14 2.06h-5.04Zm3.68-11.14v7.86h1.36c1 0 1.826-.373 2.48-1.12.653-.747.98-1.693.98-2.84 0-1.12-.347-2.047-1.04-2.78-.68-.747-1.54-1.12-2.58-1.12h-1.2ZM135.417 38V23.58h3.68V38h-3.68Zm5.254 0V23.58h3.72l5.04 7.28c.147.213.54 1.167 1.18 2.86-.333-1.627-.5-2.667-.5-3.12v-7.02h3.68V38h-3.62l-5.2-7.48c-.107-.173-.347-.7-.72-1.58l-.46-1.24.08.46.18.86c.2.96.3 1.533.3 1.72V38h-3.68Zm28.347-11.2-3.4 1.66c-.854-1.333-1.894-2-3.12-2-1.054 0-1.934.44-2.64 1.32-.694.867-1.04 1.933-1.04 3.2 0 1.253.353 2.28 1.06 3.08.72.8 1.633 1.2 2.74 1.2.8 0 1.46-.213 1.98-.64.533-.427.9-1.027 1.1-1.8h-3.52V29.8h7.6l.02 1.1c0 .68-.094 1.367-.28 2.06-.44 1.693-1.28 3.007-2.52 3.94-1.227.933-2.754 1.4-4.58 1.4-2.16 0-3.927-.693-5.3-2.08-1.374-1.4-2.06-3.187-2.06-5.36 0-2.2.7-4.007 2.1-5.42 1.413-1.427 3.233-2.14 5.46-2.14 1.96 0 3.633.613 5.02 1.84.44.4.9.953 1.38 1.66Z" fill="#E37828"/></svg>