<?xml version="1.0" encoding="utf-8"?><svg xmlns="http://www.w3.org/2000/svg" xmlns:xlink="http://www.w3.org/1999/xlink"><symbol viewBox="0 0 36 36" fill="none" id="advantages-icon-1" xmlns="http://www.w3.org/2000/svg"><path fill-rule="evenodd" clip-rule="evenodd" d="M18 0C16.4475 0 13.8533 0.59625 11.412 1.26C8.9145 1.935 6.39675 2.73375 4.91625 3.2175C4.29726 3.42192 3.74848 3.7968 3.33296 4.29908C2.91745 4.80136 2.65205 5.41066 2.56725 6.057C1.22625 16.1303 4.338 23.5958 8.1135 28.5345C9.71456 30.6472 11.6236 32.5076 13.7768 34.0537C14.6453 34.668 15.4508 35.1383 16.1348 35.46C16.7648 35.757 17.442 36 18 36C18.558 36 19.233 35.757 19.8653 35.46C20.6898 35.0592 21.4787 34.5888 22.2233 34.0537C24.3765 32.5077 26.2855 30.6472 27.8865 28.5345C31.662 23.5958 34.7738 16.1303 33.4328 6.057C33.3481 5.41035 33.0828 4.80069 32.6673 4.29802C32.2518 3.79536 31.7029 3.42007 31.0837 3.21525C28.9346 2.51058 26.7687 1.85789 24.588 1.25775C22.1468 0.5985 19.5525 0 18 0ZM22.8285 11.5785C23.0397 11.3673 23.3263 11.2486 23.625 11.2486C23.9237 11.2486 24.2103 11.3673 24.4215 11.5785C24.6327 11.7897 24.7514 12.0763 24.7514 12.375C24.7514 12.6737 24.6327 12.9603 24.4215 13.1715L17.6715 19.9215C17.567 20.0263 17.4429 20.1094 17.3062 20.1661C17.1695 20.2228 17.023 20.252 16.875 20.252C16.727 20.252 16.5805 20.2228 16.4438 20.1661C16.3071 20.1094 16.183 20.0263 16.0785 19.9215L12.7035 16.5465C12.5989 16.4419 12.5159 16.3177 12.4593 16.1811C12.4027 16.0444 12.3736 15.8979 12.3736 15.75C12.3736 15.6021 12.4027 15.4556 12.4593 15.3189C12.5159 15.1823 12.5989 15.0581 12.7035 14.9535C12.8081 14.8489 12.9323 14.7659 13.0689 14.7093C13.2056 14.6527 13.3521 14.6236 13.5 14.6236C13.6479 14.6236 13.7944 14.6527 13.9311 14.7093C14.0677 14.7659 14.1919 14.8489 14.2965 14.9535L16.875 17.5343L22.8285 11.5785Z" fill="currentColor"/></symbol><symbol viewBox="0 0 36 36" fill="none" id="advantages-icon-2" xmlns="http://www.w3.org/2000/svg"><path d="M36 18C36 26.6985 27.9405 33.75 18 33.75C16.2172 33.7524 14.4418 33.5209 12.7192 33.0615C11.4052 33.7275 8.388 35.0055 3.312 35.838C2.862 35.91 2.52 35.442 2.69775 35.0235C3.49425 33.1425 4.21425 30.636 4.43025 28.35C1.674 25.5825 0 21.96 0 18C0 9.3015 8.0595 2.25 18 2.25C27.9405 2.25 36 9.3015 36 18ZM11.25 18C11.25 17.4033 11.0129 16.831 10.591 16.409C10.169 15.9871 9.59674 15.75 9 15.75C8.40326 15.75 7.83097 15.9871 7.40901 16.409C6.98705 16.831 6.75 17.4033 6.75 18C6.75 18.5967 6.98705 19.169 7.40901 19.591C7.83097 20.0129 8.40326 20.25 9 20.25C9.59674 20.25 10.169 20.0129 10.591 19.591C11.0129 19.169 11.25 18.5967 11.25 18ZM20.25 18C20.25 17.4033 20.0129 16.831 19.591 16.409C19.169 15.9871 18.5967 15.75 18 15.75C17.4033 15.75 16.831 15.9871 16.409 16.409C15.9871 16.831 15.75 17.4033 15.75 18C15.75 18.5967 15.9871 19.169 16.409 19.591C16.831 20.0129 17.4033 20.25 18 20.25C18.5967 20.25 19.169 20.0129 19.591 19.591C20.0129 19.169 20.25 18.5967 20.25 18ZM27 20.25C27.5967 20.25 28.169 20.0129 28.591 19.591C29.0129 19.169 29.25 18.5967 29.25 18C29.25 17.4033 29.0129 16.831 28.591 16.409C28.169 15.9871 27.5967 15.75 27 15.75C26.4033 15.75 25.831 15.9871 25.409 16.409C24.9871 16.831 24.75 17.4033 24.75 18C24.75 18.5967 24.9871 19.169 25.409 19.591C25.831 20.0129 26.4033 20.25 27 20.25Z" fill="currentColor"/></symbol><symbol viewBox="0 0 36 36" fill="none" id="advantages-icon-3" xmlns="http://www.w3.org/2000/svg"><path fill-rule="evenodd" clip-rule="evenodd" d="M7.8681 0C6.00286 0 4.4908 1.51103 4.4908 3.375V32.625C4.4908 34.4889 6.00286 36 7.8681 36H28.1319C29.9971 36 31.5092 34.4889 31.5092 32.625V3.375C31.5092 1.51103 29.9971 0 28.1319 0H7.8681ZM23.2992 9.79549C23.7387 9.35615 23.7387 8.64385 23.2992 8.20451C22.8595 7.76516 22.1467 7.76516 21.7069 8.20451L12.7009 17.2044C12.2612 17.6438 12.2612 18.3562 12.7009 18.7956C13.1405 19.2348 13.8534 19.2348 14.2931 18.7956L23.2992 9.79549ZM16.8742 10.125C16.8742 11.3676 15.8662 12.375 14.6227 12.375C13.3792 12.375 12.3712 11.3676 12.3712 10.125C12.3712 8.88237 13.3792 7.875 14.6227 7.875C15.8662 7.875 16.8742 8.88237 16.8742 10.125ZM21.3773 19.125C22.6208 19.125 23.6288 18.1177 23.6288 16.875C23.6288 15.6323 22.6208 14.625 21.3773 14.625C20.1338 14.625 19.1258 15.6323 19.1258 16.875C19.1258 18.1177 20.1338 19.125 21.3773 19.125ZM10.1196 24.75C10.1196 24.1288 10.6237 23.625 11.2454 23.625H24.7546C25.3763 23.625 25.8804 24.1288 25.8804 24.75C25.8804 25.3712 25.3763 25.875 24.7546 25.875H11.2454C10.6237 25.875 10.1196 25.3712 10.1196 24.75ZM11.2454 28.125C10.6237 28.125 10.1196 28.6288 10.1196 29.25C10.1196 29.8712 10.6237 30.375 11.2454 30.375H24.7546C25.3763 30.375 25.8804 29.8712 25.8804 29.25C25.8804 28.6288 25.3763 28.125 24.7546 28.125H11.2454Z" fill="currentColor"/></symbol><symbol viewBox="0 0 36 36" fill="none" id="advantages-icon-4" xmlns="http://www.w3.org/2000/svg"><g clip-path="url(#dclip0_95_933)"><path d="M8.127 34.7469C7.2585 35.1924 6.273 34.4117 6.4485 33.4149L8.316 22.7724L0.389249 15.2214C-0.351001 14.5149 0.0337491 13.2234 1.026 13.0839L12.0465 11.5179L16.9605 1.78215C17.4037 0.904648 18.603 0.904648 19.0462 1.78215L23.9602 11.5179L34.9807 13.0839C35.973 13.2234 36.3577 14.5149 35.6152 15.2214L27.6908 22.7724L29.5582 33.4149C29.7337 34.4117 28.7482 35.1924 27.8797 34.7469L18 29.6709L8.127 34.7469Z" fill="currentColor"/></g><defs><clipPath id="dclip0_95_933"><rect width="36" height="36" fill="white"/></clipPath></defs></symbol><symbol viewBox="0 0 36 36" fill="none" id="advantages-icon-5" xmlns="http://www.w3.org/2000/svg"><path d="M11.4059 7.2H24.5941C24.9121 7.2 25.217 7.07357 25.4419 6.84853C25.6667 6.62348 25.793 6.31826 25.793 6V3.6C25.793 2.64522 25.4141 1.72955 24.7396 1.05442C24.065 0.379284 23.1502 0 22.1963 0H13.8038C12.8498 0 11.935 0.379284 11.2604 1.05442C10.5859 1.72955 10.207 2.64522 10.207 3.6V6C10.207 6.31826 10.3333 6.62348 10.5581 6.84853C10.783 7.07357 11.0879 7.2 11.4059 7.2ZM31.1882 3H29.9893C29.9092 2.9947 29.8289 3.00658 29.7538 3.03486C29.6786 3.06314 29.6104 3.10715 29.5536 3.16396C29.4969 3.22077 29.4529 3.28906 29.4247 3.36426C29.3964 3.43946 29.3845 3.51983 29.3898 3.6V6C29.3898 7.27304 28.8846 8.49394 27.9852 9.39411C27.0858 10.2943 25.866 10.8 24.5941 10.8H11.4059C10.134 10.8 8.91418 10.2943 8.01481 9.39411C7.11544 8.49394 6.61018 7.27304 6.61018 6V3.6C6.61548 3.51983 6.6036 3.43946 6.57535 3.36426C6.5471 3.28906 6.50312 3.22077 6.44636 3.16396C6.3896 3.10715 6.32137 3.06314 6.24624 3.03486C6.17111 3.00658 6.09081 2.9947 6.01071 3H4.81179C3.85786 3 2.943 3.37928 2.26847 4.05442C1.59395 4.72955 1.215 5.64522 1.215 6.6V32.4C1.215 33.3548 1.59395 34.2705 2.26847 34.9456C2.943 35.6207 3.85786 36 4.81179 36H31.1882C32.1421 36 33.057 35.6207 33.7315 34.9456C34.4061 34.2705 34.785 33.3548 34.785 32.4V6.6C34.785 5.64522 34.4061 4.72955 33.7315 4.05442C33.057 3.37928 32.1421 3 31.1882 3ZM11.4059 28.8C11.4059 29.1183 11.2796 29.4235 11.0547 29.6485C10.8299 29.8736 10.5249 30 10.207 30H9.00804C8.69006 30 8.38511 29.8736 8.16026 29.6485C7.93542 29.4235 7.80911 29.1183 7.80911 28.8V27.6C7.80911 27.2817 7.93542 26.9765 8.16026 26.7515C8.38511 26.5264 8.69006 26.4 9.00804 26.4H10.207C10.5249 26.4 10.8299 26.5264 11.0547 26.7515C11.2796 26.9765 11.4059 27.2817 11.4059 27.6V28.8ZM11.4059 22.8C11.4059 23.1183 11.2796 23.4235 11.0547 23.6485C10.8299 23.8736 10.5249 24 10.207 24H9.00804C8.69006 24 8.38511 23.8736 8.16026 23.6485C7.93542 23.4235 7.80911 23.1183 7.80911 22.8V21.6C7.80911 21.2817 7.93542 20.9765 8.16026 20.7515C8.38511 20.5264 8.69006 20.4 9.00804 20.4H10.207C10.5249 20.4 10.8299 20.5264 11.0547 20.7515C11.2796 20.9765 11.4059 21.2817 11.4059 21.6V22.8ZM11.4059 16.8C11.4059 17.1183 11.2796 17.4235 11.0547 17.6485C10.8299 17.8736 10.5249 18 10.207 18H9.00804C8.69006 18 8.38511 17.8736 8.16026 17.6485C7.93542 17.4235 7.80911 17.1183 7.80911 16.8V15.6C7.80911 15.2817 7.93542 14.9765 8.16026 14.7515C8.38511 14.5264 8.69006 14.4 9.00804 14.4H10.207C10.5249 14.4 10.8299 14.5264 11.0547 14.7515C11.2796 14.9765 11.4059 15.2817 11.4059 15.6V16.8ZM28.1909 28.8C28.1909 29.1183 28.0646 29.4235 27.8397 29.6485C27.6149 29.8736 27.3099 30 26.992 30H15.0027C14.6847 30 14.3798 29.8736 14.1549 29.6485C13.9301 29.4235 13.8038 29.1183 13.8038 28.8V27.6C13.8038 27.2817 13.9301 26.9765 14.1549 26.7515C14.3798 26.5264 14.6847 26.4 15.0027 26.4H26.992C27.3099 26.4 27.6149 26.5264 27.8397 26.7515C28.0646 26.9765 28.1909 27.2817 28.1909 27.6V28.8ZM28.1909 22.8C28.1909 23.1183 28.0646 23.4235 27.8397 23.6485C27.6149 23.8736 27.3099 24 26.992 24H15.0027C14.6847 24 14.3798 23.8736 14.1549 23.6485C13.9301 23.4235 13.8038 23.1183 13.8038 22.8V21.6C13.8038 21.2817 13.9301 20.9765 14.1549 20.7515C14.3798 20.5264 14.6847 20.4 15.0027 20.4H26.992C27.3099 20.4 27.6149 20.5264 27.8397 20.7515C28.0646 20.9765 28.1909 21.2817 28.1909 21.6V22.8ZM28.1909 16.8C28.1909 17.1183 28.0646 17.4235 27.8397 17.6485C27.6149 17.8736 27.3099 18 26.992 18H15.0027C14.6847 18 14.3798 17.8736 14.1549 17.6485C13.9301 17.4235 13.8038 17.1183 13.8038 16.8V15.6C13.8038 15.2817 13.9301 14.9765 14.1549 14.7515C14.3798 14.5264 14.6847 14.4 15.0027 14.4H26.992C27.3099 14.4 27.6149 14.5264 27.8397 14.7515C28.0646 14.9765 28.1909 15.2817 28.1909 15.6V16.8Z" fill="currentColor"/></symbol><symbol viewBox="0 0 12 12" fill="none" id="email" xmlns="http://www.w3.org/2000/svg"><g clip-path="url(#fclip0_118_1152)"><path d="M0.0375 2.66625C0.113114 2.33493 0.298992 2.03911 0.564691 1.82723C0.830391 1.61535 1.16016 1.49998 1.5 1.5H10.5C10.8398 1.49998 11.1696 1.61535 11.4353 1.82723C11.701 2.03911 11.8869 2.33493 11.9625 2.66625L6 6.3105L0.0375 2.66625ZM0 3.52275V8.85075L4.35225 6.18225L0 3.52275ZM5.07075 6.6225L0.14325 9.64275C0.264995 9.89946 0.457145 10.1163 0.697336 10.2681C0.937527 10.4198 1.21588 10.5003 1.5 10.5H10.5C10.7841 10.5001 11.0623 10.4195 11.3024 10.2676C11.5424 10.1157 11.7344 9.89874 11.856 9.642L6.9285 6.62175L6 7.1895L5.07075 6.6225ZM7.64775 6.183L12 8.85075V3.52275L7.64775 6.18225V6.183Z" fill="currentColor"/></g><defs><clipPath id="fclip0_118_1152"><rect width="12" height="12" fill="white"/></clipPath></defs></symbol><symbol viewBox="0 0 28 28" fill="none" id="facebook" xmlns="http://www.w3.org/2000/svg"><path fill-rule="evenodd" clip-rule="evenodd" d="M12.2357 4.41897C13.3844 3.27031 14.9422 2.625 16.5667 2.625H19.7167C20.1999 2.625 20.5917 3.01675 20.5917 3.5V7.7C20.5917 8.18324 20.1999 8.575 19.7167 8.575H16.5667C16.5203 8.575 16.4758 8.59343 16.4429 8.62625C16.4101 8.65907 16.3917 8.70359 16.3917 8.75V11.025H19.7167C19.9862 11.025 20.2405 11.1491 20.4064 11.3615C20.5722 11.5739 20.6309 11.8508 20.5656 12.1122L19.5156 16.3122C19.4181 16.7018 19.0683 16.975 18.6667 16.975H16.3917V24.5C16.3917 24.9832 15.9999 25.375 15.5167 25.375H11.3167C10.8334 25.375 10.4417 24.9832 10.4417 24.5V16.975H8.16669C7.68344 16.975 7.29169 16.5832 7.29169 16.1V11.9C7.29169 11.4168 7.68344 11.025 8.16669 11.025H10.4417V8.75C10.4417 7.12555 11.087 5.56764 12.2357 4.41897ZM16.5667 4.375C15.4063 4.375 14.2936 4.83594 13.473 5.65641C12.6526 6.47688 12.1917 7.58968 12.1917 8.75V11.9C12.1917 12.3832 11.7999 12.775 11.3167 12.775H9.04169V15.225H11.3167C11.7999 15.225 12.1917 15.6168 12.1917 16.1V23.625H14.6417V16.1C14.6417 15.6168 15.0335 15.225 15.5167 15.225H17.9835L18.596 12.775H15.5167C15.0335 12.775 14.6417 12.3832 14.6417 11.9V8.75C14.6417 8.23945 14.8445 7.74983 15.2055 7.38881C15.5665 7.02781 16.0562 6.825 16.5667 6.825H18.8417V4.375H16.5667Z" fill="currentColor"/><path d="M19.7165 2.5C20.2688 2.5 20.7165 2.94772 20.7165 3.5V7.7002C20.7164 8.25239 20.2687 8.7002 19.7165 8.7002H16.5671C16.5539 8.7002 16.5405 8.70532 16.5309 8.71484C16.5218 8.72419 16.5163 8.73687 16.5163 8.75V10.9004H19.7165C20.0243 10.9004 20.315 11.0417 20.5046 11.2842C20.694 11.5269 20.7618 11.8438 20.6872 12.1426L19.6364 16.3428C19.525 16.7878 19.1255 17.0996 18.6667 17.0996H16.5163V24.5C16.5163 25.0523 16.0686 25.5 15.5163 25.5H11.3171C10.7648 25.5 10.3171 25.0523 10.3171 24.5V17.0996H8.16669C7.61441 17.0996 7.16669 16.6519 7.16669 16.0996V11.9004C7.16669 11.3481 7.61441 10.9004 8.16669 10.9004H10.3171V8.75C10.3171 7.09253 10.9752 5.50313 12.1472 4.33105C13.3193 3.15895 14.9095 2.5 16.5671 2.5H19.7165ZM16.5671 2.625C14.9427 2.625 13.3847 3.2704 12.236 4.41895C11.0873 5.56761 10.4421 7.12555 10.4421 8.75V11.0254H8.16669C7.68344 11.0254 7.29169 11.4171 7.29169 11.9004V16.0996C7.29169 16.5828 7.68344 16.9746 8.16669 16.9746H10.4421V24.5C10.4421 24.9832 10.8338 25.375 11.3171 25.375H15.5163C15.9995 25.375 16.3913 24.9832 16.3913 24.5V16.9746H18.6667C19.0681 16.9746 19.4178 16.7019 19.5153 16.3125L20.5651 12.1123C20.6305 11.8509 20.5717 11.5737 20.4059 11.3613C20.24 11.1492 19.9858 11.0254 19.7165 11.0254H16.3913V8.75C16.3913 8.70359 16.4103 8.65879 16.4431 8.62598C16.4759 8.59329 16.5207 8.5752 16.5671 8.5752H19.7165C20.1997 8.5752 20.5914 8.18335 20.5915 7.7002V3.5C20.5915 3.01675 20.1997 2.625 19.7165 2.625H16.5671ZM18.8415 4.375V6.8252H16.5671C16.0566 6.8252 15.5667 7.02778 15.2057 7.38867C14.8447 7.74969 14.6413 8.23945 14.6413 8.75V11.9004C14.6415 12.3833 15.0334 12.7752 15.5163 12.7754H18.5964L17.9831 15.2246H15.5163C15.0334 15.2248 14.6415 15.6167 14.6413 16.0996V23.625H12.1921V16.0996C12.1919 15.6167 11.8 15.2248 11.3171 15.2246H9.04169V12.7754H11.3171C11.8 12.7752 12.1919 12.3833 12.1921 11.9004V8.75C12.1921 7.58968 12.6529 6.47672 13.4733 5.65625C14.2938 4.83592 15.4068 4.375 16.5671 4.375H18.8415ZM16.5671 4.5C15.4399 4.5 14.3583 4.94809 13.5612 5.74512C12.7644 6.54212 12.3171 7.62296 12.3171 8.75V11.9004C12.3169 12.4523 11.869 12.9002 11.3171 12.9004H9.16669V15.0996H11.3171C11.869 15.0998 12.3169 15.5476 12.3171 16.0996V23.5H14.5163V16.0996C14.5165 15.5476 14.9643 15.0998 15.5163 15.0996H17.8854L18.4352 12.9004H15.5163C14.9643 12.9002 14.5165 12.4523 14.5163 11.9004V8.75C14.5163 8.20646 14.7325 7.68521 15.1169 7.30078C15.5013 6.91633 16.0234 6.7002 16.5671 6.7002H18.7165V4.5H16.5671Z" fill="currentColor"/></symbol><symbol viewBox="0 0 28 28" fill="none" id="instagram" xmlns="http://www.w3.org/2000/svg"><path d="M17.78 14C17.78 11.9 16.1 10.22 14 10.22C11.9 10.22 10.22 11.9 10.22 14C10.22 16.1 11.9 17.78 14 17.78C16.1 17.78 17.78 16.1 17.78 14ZM19.74 14C19.74 17.22 17.22 19.7401 14 19.7401C10.78 19.7401 8.25999 17.22 8.25999 14C8.25999 10.78 10.78 8.26005 14 8.26005C17.22 8.26005 19.74 10.78 19.74 14ZM21.28 7.98005C21.28 8.82005 20.72 9.38005 19.88 9.38005C19.04 9.38005 18.48 8.82005 18.48 7.98005C18.48 7.14005 19.04 6.58005 19.88 6.58005C20.72 6.58005 21.28 7.28005 21.28 7.98005ZM14 4.76005C12.32 4.76005 8.81999 4.62005 7.41999 5.18005C6.43999 5.60005 5.59999 6.44005 5.31999 7.42005C4.75999 8.82005 4.89999 12.32 4.89999 14C4.89999 15.68 4.75999 19.18 5.31999 20.58C5.59999 21.56 6.43999 22.4001 7.41999 22.6801C8.81999 23.2401 12.46 23.1 14 23.1C15.54 23.1 19.18 23.2401 20.58 22.6801C21.56 22.2601 22.26 21.56 22.68 20.58C23.24 19.0401 23.1 15.54 23.1 14C23.1 12.46 23.24 8.82005 22.68 7.42005C22.4 6.44005 21.56 5.60005 20.58 5.32005C19.18 4.62005 15.68 4.76005 14 4.76005ZM25.2 14V18.6201C25.2 20.3001 24.64 21.9801 23.38 23.3801C22.12 24.6401 20.44 25.2001 18.62 25.2001H9.37999C7.69999 25.2001 6.01999 24.6401 4.61999 23.3801C3.49999 22.1201 2.79999 20.4401 2.79999 18.6201V14V9.38005C2.79999 7.56005 3.49999 5.88005 4.61999 4.62005C6.01999 3.50005 7.69999 2.80005 9.37999 2.80005H18.62C20.3 2.80005 21.98 3.36005 23.38 4.62005C24.5 5.88005 25.2 7.56005 25.2 9.38005V14Z" fill="currentColor"/></symbol><symbol viewBox="0 0 12 12" fill="none" id="phone" xmlns="http://www.w3.org/2000/svg"><g clip-path="url(#jclip0_118_1145)"><path fill-rule="evenodd" clip-rule="evenodd" d="M1.41337 0.384093C1.5446 0.253059 1.70218 0.151411 1.87567 0.085885C2.04916 0.0203588 2.23459 -0.0075494 2.41968 0.00400975C2.60476 0.0155689 2.78528 0.0663315 2.94927 0.152934C3.11325 0.239536 3.25696 0.36 3.37087 0.506343L4.71712 2.23584C4.96387 2.55309 5.05087 2.96634 4.95337 3.35634L4.54312 4.99884C4.52191 5.08391 4.52306 5.17303 4.54645 5.25752C4.56984 5.34202 4.61468 5.41904 4.67662 5.48109L6.51937 7.32384C6.5815 7.38591 6.65864 7.43082 6.74329 7.45422C6.82793 7.47761 6.91719 7.47869 7.00237 7.45734L8.64412 7.04709C8.83658 6.99897 9.03746 6.99523 9.23158 7.03616C9.4257 7.07709 9.60797 7.16161 9.76462 7.28334L11.4941 8.62884C12.1159 9.11259 12.1729 10.0313 11.6164 10.5871L10.8409 11.3626C10.2859 11.9176 9.45637 12.1613 8.68312 11.8891C6.70401 11.1927 4.90708 10.0597 3.42562 8.57409C1.94009 7.09285 0.807077 5.29619 0.110621 3.31734C-0.160879 2.54484 0.0828708 1.71459 0.637871 1.15959L1.41337 0.384093Z" fill="currentColor"/></g><defs><clipPath id="jclip0_118_1145"><rect width="12" height="12" fill="white"/></clipPath></defs></symbol><symbol viewBox="0 0 20 20" fill="none" id="phone-call" xmlns="http://www.w3.org/2000/svg"><path d="M16.6667 9.16585H18.3333C18.3333 4.89085 15.1058 1.66669 10.825 1.66669V3.33335C14.21 3.33335 16.6667 5.78585 16.6667 9.16585Z" fill="currentColor"/><path d="M10.8333 6.66666C12.5858 6.66666 13.3333 7.41416 13.3333 9.16666H15C15 6.47916 13.5208 5 10.8333 5V6.66666ZM13.685 11.2025C13.5249 11.057 13.3144 10.9793 13.0982 10.986C12.8819 10.9927 12.6767 11.0832 12.5258 11.2383L10.5317 13.2892C10.0517 13.1975 9.08666 12.8967 8.09332 11.9058C7.09999 10.9117 6.79916 9.94416 6.70999 9.4675L8.75916 7.4725C8.9145 7.32177 9.0051 7.11651 9.01179 6.90017C9.01848 6.68382 8.94073 6.47336 8.79499 6.31333L5.71582 2.9275C5.57003 2.76696 5.36739 2.66958 5.15095 2.65605C4.93451 2.64251 4.72132 2.71388 4.55666 2.855L2.74832 4.40583C2.60425 4.55042 2.51826 4.74287 2.50666 4.94666C2.49416 5.155 2.25582 10.09 6.08249 13.9183C9.42082 17.2558 13.6025 17.5 14.7542 17.5C14.9225 17.5 15.0258 17.495 15.0533 17.4933C15.2571 17.4819 15.4494 17.3955 15.5933 17.2508L17.1433 15.4417C17.2845 15.2771 17.3561 15.064 17.3427 14.8475C17.3293 14.6311 17.2321 14.4284 17.0717 14.2825L13.685 11.2025Z" fill="currentColor"/></symbol><symbol viewBox="0 0 16 16" fill="none" id="separator" xmlns="http://www.w3.org/2000/svg"><path d="M6.47379 12.1952C6.73413 12.4556 7.15627 12.4556 7.4166 12.1952L10.6749 8.93371C11.1951 8.41298 11.1949 7.56911 10.6745 7.04858L7.4142 3.78834C7.15387 3.52799 6.73173 3.52799 6.47139 3.78834C6.21103 4.04869 6.21103 4.4708 6.47139 4.73115L9.2618 7.52158C9.5222 7.78191 9.5222 8.20405 9.2618 8.46438L6.47379 11.2524C6.21344 11.5128 6.21344 11.9348 6.47379 12.1952Z" fill="currentColor"/></symbol><symbol viewBox="0 0 36 35" fill="none" id="services-icon-1" xmlns="http://www.w3.org/2000/svg"><path fill-rule="evenodd" clip-rule="evenodd" d="M18 7.05411L31.5 19.9071V28.9191C31.5 29.7713 31.1444 30.5886 30.5115 31.1912C29.8786 31.7938 29.0201 32.1323 28.125 32.1323H7.875C6.97989 32.1323 6.12145 31.7938 5.48851 31.1912C4.85558 30.5886 4.5 29.7713 4.5 28.9191V19.9071L18 7.05411ZM29.25 5.35538V12.8529L24.75 8.56862V5.35538C24.75 5.07131 24.8685 4.79888 25.0795 4.59801C25.2905 4.39715 25.5766 4.2843 25.875 4.2843H28.125C28.4234 4.2843 28.7095 4.39715 28.9205 4.59801C29.1315 4.79888 29.25 5.07131 29.25 5.35538Z" fill="currentColor"/><path fill-rule="evenodd" clip-rule="evenodd" d="M16.4093 3.21325C16.8312 2.81166 17.4034 2.58606 18 2.58606C18.5966 2.58606 19.1688 2.81166 19.5908 3.21325L34.5465 17.45C34.7578 17.6511 34.8764 17.9239 34.8764 18.2084C34.8764 18.4928 34.7578 18.7656 34.5465 18.9667C34.3353 19.1678 34.0488 19.2808 33.75 19.2808C33.4513 19.2808 33.1648 19.1678 32.9535 18.9667L18 4.72776L3.04652 18.9667C2.83527 19.1678 2.54876 19.2808 2.25002 19.2808C1.95127 19.2808 1.66476 19.1678 1.45352 18.9667C1.24227 18.7656 1.1236 18.4928 1.1236 18.2084C1.1236 17.9239 1.24227 17.6511 1.45352 17.45L16.4093 3.21325Z" fill="currentColor"/></symbol><symbol viewBox="0 0 36 36" fill="none" id="services-icon-2" xmlns="http://www.w3.org/2000/svg"><path d="M3.375 33.75C3.07663 33.75 2.79048 33.8685 2.5795 34.0795C2.36853 34.2904 2.25 34.5766 2.25 34.875C2.25 35.1733 2.36853 35.4595 2.5795 35.6704C2.79048 35.8814 3.07663 36 3.375 36H32.625C32.9234 36 33.2095 35.8814 33.4205 35.6704C33.6315 35.4595 33.75 35.1733 33.75 34.875C33.75 34.5766 33.6315 34.2904 33.4205 34.0795C33.2095 33.8685 32.9234 33.75 32.625 33.75H29.25V5.62495C29.25 4.72985 28.8944 3.8714 28.2615 3.23847C27.6286 2.60553 26.7701 2.24995 25.875 2.24995H24.75V1.12495C24.75 0.963921 24.7154 0.804772 24.6486 0.658262C24.5817 0.511752 24.4842 0.381295 24.3626 0.27571C24.2411 0.170124 24.0982 0.0918706 23.9438 0.046238C23.7894 0.000605367 23.6269 -0.0113426 23.4675 0.0112017L7.7175 2.2612C7.44912 2.29915 7.20346 2.43272 7.0257 2.63735C6.84794 2.84197 6.75004 3.1039 6.75 3.37495V33.75H3.375ZM24.75 4.49995H25.875C26.1734 4.49995 26.4595 4.61848 26.6705 4.82946C26.8815 5.04043 27 5.32658 27 5.62495V33.75H24.75V4.49995ZM19.125 22.5C18.504 22.5 18 21.492 18 20.25C18 19.0079 18.504 18 19.125 18C19.746 18 20.25 19.0079 20.25 20.25C20.25 21.492 19.746 22.5 19.125 22.5Z" fill="currentColor"/></symbol><symbol viewBox="0 0 36 36" fill="none" id="services-icon-3" xmlns="http://www.w3.org/2000/svg"><g clip-path="url(#nclip0_80_508)"><path d="M28.8 34.2H7.2V2.78138C7.2 2.28241 7.36255 1.80388 7.65189 1.45106C7.94123 1.09824 8.33366 0.900024 8.74285 0.900024H27.2571C27.6663 0.900024 28.0588 1.09824 28.3481 1.45106C28.6374 1.80388 28.8 2.28241 28.8 2.78138V34.2Z" stroke="currentColor" stroke-width="2" stroke-linecap="round" stroke-linejoin="round" fill="none"/><path d="M18 0.900024V34.2M27.9 17.55H8.1" stroke="currentColor" stroke-width="2" stroke-linecap="round" stroke-linejoin="round" fill="none"/><rect x="1.8" y="34.2" width="32.4" height="1.8" rx="0.9" fill="#E37828"/></g><defs><clipPath id="nclip0_80_508"><rect width="36" height="36" fill="white"/></clipPath></defs></symbol><symbol viewBox="0 0 36 36" fill="none" id="services-icon-4" xmlns="http://www.w3.org/2000/svg"><path d="M34.2776 27.2744L26.5019 19.499C24.968 17.9651 22.6771 17.6663 20.8311 18.576L13.7526 11.4978V7.37438L5.25308 1L1.00332 5.24959L7.37797 13.7488H11.5016L18.5801 20.827C17.677 22.6729 17.9692 24.9637 19.5031 26.4975L27.2788 34.2729C28.2483 35.2424 29.8154 35.2424 30.7782 34.2729L34.2776 30.7737C35.2405 29.8042 35.2405 28.2372 34.2776 27.2744ZM23.029 15.9399C24.9082 15.9399 26.6745 16.6703 28.0026 17.9983L29.2908 19.2865C30.34 18.8283 31.336 18.1909 32.1992 17.3277C34.6628 14.8643 35.4994 11.3982 34.7159 8.25085C34.5698 7.65326 33.8195 7.44742 33.3812 7.88566L28.4409 12.8258L23.9321 12.0755L23.1818 7.56694L28.1221 2.62679C28.5604 2.18856 28.3479 1.43824 27.7436 1.28552C24.5961 0.508642 21.1299 1.34528 18.673 3.80207C16.7806 5.69446 15.8908 8.19109 15.9373 10.6811L21.3889 16.1325C21.9268 16.0063 22.4845 15.9399 23.029 15.9399ZM16.1298 21.3847L12.3648 17.6199L2.24505 27.7458C0.584984 29.4058 0.584984 32.095 2.24505 33.755C3.90511 35.415 6.59442 35.415 8.25448 33.755L16.4618 25.548C15.9572 24.2266 15.8045 22.7858 16.1298 21.3847ZM5.25308 32.3407C4.37657 32.3407 3.65942 31.6236 3.65942 30.7471C3.65942 29.864 4.36993 29.1535 5.25308 29.1535C6.13624 29.1535 6.84675 29.864 6.84675 30.7471C6.84675 31.6236 6.13624 32.3407 5.25308 32.3407Z" fill="currentColor"/></symbol><symbol viewBox="0 0 11 20" fill="none" id="slider-arrow-next" xmlns="http://www.w3.org/2000/svg"><path d="M0.322692 0.322994C0.753439 -0.107665 1.45161 -0.107665 1.88236 0.322994L9.20971 7.6504C10.5014 8.94207 10.5018 11.036 9.21062 12.3282L1.96496 19.5794C1.53432 20.0102 0.836039 20.0102 0.405402 19.5794C-0.0252352 19.1488 -0.0252352 18.4505 0.405402 18.0198L7.65294 10.7724C8.0836 10.3416 8.0836 9.64344 7.65294 9.2128L0.322692 1.88257C-0.107944 1.4519 -0.107944 0.753664 0.322692 0.322994Z" fill="currentColor"/></symbol><symbol viewBox="0 0 11 20" fill="none" id="slider-arrow-prev" xmlns="http://www.w3.org/2000/svg"><path d="M9.85602 0.322994C9.42527 -0.107665 8.7271 -0.107665 8.29635 0.322994L0.968996 7.6504C-0.322649 8.94207 -0.323047 11.036 0.968092 12.3282L8.21375 19.5794C8.64439 20.0102 9.34267 20.0102 9.77331 19.5794C10.2039 19.1488 10.2039 18.4505 9.77331 18.0198L2.52577 10.7724C2.09511 10.3416 2.09511 9.64344 2.52577 9.2128L9.85602 1.88257C10.2867 1.4519 10.2867 0.753664 9.85602 0.322994Z" fill="currentColor"/></symbol></svg>