<svg width="36" height="36" viewBox="0 0 36 36" fill="none" xmlns="http://www.w3.org/2000/svg">
<path fill-rule="evenodd" clip-rule="evenodd" d="M18 0C16.4475 0 13.8533 0.59625 11.412 1.26C8.9145 1.935 6.39675 2.73375 4.91625 3.2175C4.29726 3.42192 3.74848 3.7968 3.33296 4.29908C2.91745 4.80136 2.65205 5.41066 2.56725 6.057C1.22625 16.1303 4.338 23.5958 8.1135 28.5345C9.71456 30.6472 11.6236 32.5076 13.7768 34.0537C14.6453 34.668 15.4508 35.1383 16.1348 35.46C16.7648 35.757 17.442 36 18 36C18.558 36 19.233 35.757 19.8653 35.46C20.6898 35.0592 21.4787 34.5888 22.2233 34.0537C24.3765 32.5077 26.2855 30.6472 27.8865 28.5345C31.662 23.5958 34.7738 16.1303 33.4328 6.057C33.3481 5.41035 33.0828 4.80069 32.6673 4.29802C32.2518 3.79536 31.7029 3.42007 31.0837 3.21525C28.9346 2.51058 26.7687 1.85789 24.588 1.25775C22.1468 0.5985 19.5525 0 18 0ZM22.8285 11.5785C23.0397 11.3673 23.3263 11.2486 23.625 11.2486C23.9237 11.2486 24.2103 11.3673 24.4215 11.5785C24.6327 11.7897 24.7514 12.0763 24.7514 12.375C24.7514 12.6737 24.6327 12.9603 24.4215 13.1715L17.6715 19.9215C17.567 20.0263 17.4429 20.1094 17.3062 20.1661C17.1695 20.2228 17.023 20.252 16.875 20.252C16.727 20.252 16.5805 20.2228 16.4438 20.1661C16.3071 20.1094 16.183 20.0263 16.0785 19.9215L12.7035 16.5465C12.5989 16.4419 12.5159 16.3177 12.4593 16.1811C12.4027 16.0444 12.3736 15.8979 12.3736 15.75C12.3736 15.6021 12.4027 15.4556 12.4593 15.3189C12.5159 15.1823 12.5989 15.0581 12.7035 14.9535C12.8081 14.8489 12.9323 14.7659 13.0689 14.7093C13.2056 14.6527 13.3521 14.6236 13.5 14.6236C13.6479 14.6236 13.7944 14.6527 13.9311 14.7093C14.0677 14.7659 14.1919 14.8489 14.2965 14.9535L16.875 17.5343L22.8285 11.5785Z" fill="#E37828"/>
</svg>
