<svg width="12" height="12" viewBox="0 0 12 12" fill="none" xmlns="http://www.w3.org/2000/svg">
<g clip-path="url(#clip0_118_1152)">
<path d="M0.0375 2.66625C0.113114 2.33493 0.298992 2.03911 0.564691 1.82723C0.830391 1.61535 1.16016 1.49998 1.5 1.5H10.5C10.8398 1.49998 11.1696 1.61535 11.4353 1.82723C11.701 2.03911 11.8869 2.33493 11.9625 2.66625L6 6.3105L0.0375 2.66625ZM0 3.52275V8.85075L4.35225 6.18225L0 3.52275ZM5.07075 6.6225L0.14325 9.64275C0.264995 9.89946 0.457145 10.1163 0.697336 10.2681C0.937527 10.4198 1.21588 10.5003 1.5 10.5H10.5C10.7841 10.5001 11.0623 10.4195 11.3024 10.2676C11.5424 10.1157 11.7344 9.89874 11.856 9.642L6.9285 6.62175L6 7.1895L5.07075 6.6225ZM7.64775 6.183L12 8.85075V3.52275L7.64775 6.18225V6.183Z" fill="#E37828"/>
</g>
<defs>
<clipPath id="clip0_118_1152">
<rect width="12" height="12" fill="white"/>
</clipPath>
</defs>
</svg>
