<svg width="28" height="28" viewBox="0 0 28 28" fill="none" xmlns="http://www.w3.org/2000/svg">
<path fill-rule="evenodd" clip-rule="evenodd" d="M12.2357 4.41897C13.3844 3.27031 14.9422 2.625 16.5667 2.625H19.7167C20.1999 2.625 20.5917 3.01675 20.5917 3.5V7.7C20.5917 8.18324 20.1999 8.575 19.7167 8.575H16.5667C16.5203 8.575 16.4758 8.59343 16.4429 8.62625C16.4101 8.65907 16.3917 8.70359 16.3917 8.75V11.025H19.7167C19.9862 11.025 20.2405 11.1491 20.4064 11.3615C20.5722 11.5739 20.6309 11.8508 20.5656 12.1122L19.5156 16.3122C19.4181 16.7018 19.0683 16.975 18.6667 16.975H16.3917V24.5C16.3917 24.9832 15.9999 25.375 15.5167 25.375H11.3167C10.8334 25.375 10.4417 24.9832 10.4417 24.5V16.975H8.16669C7.68344 16.975 7.29169 16.5832 7.29169 16.1V11.9C7.29169 11.4168 7.68344 11.025 8.16669 11.025H10.4417V8.75C10.4417 7.12555 11.087 5.56764 12.2357 4.41897ZM16.5667 4.375C15.4063 4.375 14.2936 4.83594 13.473 5.65641C12.6526 6.47688 12.1917 7.58968 12.1917 8.75V11.9C12.1917 12.3832 11.7999 12.775 11.3167 12.775H9.04169V15.225H11.3167C11.7999 15.225 12.1917 15.6168 12.1917 16.1V23.625H14.6417V16.1C14.6417 15.6168 15.0335 15.225 15.5167 15.225H17.9835L18.596 12.775H15.5167C15.0335 12.775 14.6417 12.3832 14.6417 11.9V8.75C14.6417 8.23945 14.8445 7.74983 15.2055 7.38881C15.5665 7.02781 16.0562 6.825 16.5667 6.825H18.8417V4.375H16.5667Z" fill="white"/>
<path d="M19.7165 2.5C20.2688 2.5 20.7165 2.94772 20.7165 3.5V7.7002C20.7164 8.25239 20.2687 8.7002 19.7165 8.7002H16.5671C16.5539 8.7002 16.5405 8.70532 16.5309 8.71484C16.5218 8.72419 16.5163 8.73687 16.5163 8.75V10.9004H19.7165C20.0243 10.9004 20.315 11.0417 20.5046 11.2842C20.694 11.5269 20.7618 11.8438 20.6872 12.1426L19.6364 16.3428C19.525 16.7878 19.1255 17.0996 18.6667 17.0996H16.5163V24.5C16.5163 25.0523 16.0686 25.5 15.5163 25.5H11.3171C10.7648 25.5 10.3171 25.0523 10.3171 24.5V17.0996H8.16669C7.61441 17.0996 7.16669 16.6519 7.16669 16.0996V11.9004C7.16669 11.3481 7.61441 10.9004 8.16669 10.9004H10.3171V8.75C10.3171 7.09253 10.9752 5.50313 12.1472 4.33105C13.3193 3.15895 14.9095 2.5 16.5671 2.5H19.7165ZM16.5671 2.625C14.9427 2.625 13.3847 3.2704 12.236 4.41895C11.0873 5.56761 10.4421 7.12555 10.4421 8.75V11.0254H8.16669C7.68344 11.0254 7.29169 11.4171 7.29169 11.9004V16.0996C7.29169 16.5828 7.68344 16.9746 8.16669 16.9746H10.4421V24.5C10.4421 24.9832 10.8338 25.375 11.3171 25.375H15.5163C15.9995 25.375 16.3913 24.9832 16.3913 24.5V16.9746H18.6667C19.0681 16.9746 19.4178 16.7019 19.5153 16.3125L20.5651 12.1123C20.6305 11.8509 20.5717 11.5737 20.4059 11.3613C20.24 11.1492 19.9858 11.0254 19.7165 11.0254H16.3913V8.75C16.3913 8.70359 16.4103 8.65879 16.4431 8.62598C16.4759 8.59329 16.5207 8.5752 16.5671 8.5752H19.7165C20.1997 8.5752 20.5914 8.18335 20.5915 7.7002V3.5C20.5915 3.01675 20.1997 2.625 19.7165 2.625H16.5671ZM18.8415 4.375V6.8252H16.5671C16.0566 6.8252 15.5667 7.02778 15.2057 7.38867C14.8447 7.74969 14.6413 8.23945 14.6413 8.75V11.9004C14.6415 12.3833 15.0334 12.7752 15.5163 12.7754H18.5964L17.9831 15.2246H15.5163C15.0334 15.2248 14.6415 15.6167 14.6413 16.0996V23.625H12.1921V16.0996C12.1919 15.6167 11.8 15.2248 11.3171 15.2246H9.04169V12.7754H11.3171C11.8 12.7752 12.1919 12.3833 12.1921 11.9004V8.75C12.1921 7.58968 12.6529 6.47672 13.4733 5.65625C14.2938 4.83592 15.4068 4.375 16.5671 4.375H18.8415ZM16.5671 4.5C15.4399 4.5 14.3583 4.94809 13.5612 5.74512C12.7644 6.54212 12.3171 7.62296 12.3171 8.75V11.9004C12.3169 12.4523 11.869 12.9002 11.3171 12.9004H9.16669V15.0996H11.3171C11.869 15.0998 12.3169 15.5476 12.3171 16.0996V23.5H14.5163V16.0996C14.5165 15.5476 14.9643 15.0998 15.5163 15.0996H17.8854L18.4352 12.9004H15.5163C14.9643 12.9002 14.5165 12.4523 14.5163 11.9004V8.75C14.5163 8.20646 14.7325 7.68521 15.1169 7.30078C15.5013 6.91633 16.0234 6.7002 16.5671 6.7002H18.7165V4.5H16.5671Z" fill="white"/>
</svg>
