<svg width="28" height="28" viewBox="0 0 28 28" fill="none" xmlns="http://www.w3.org/2000/svg">
<path d="M19.7165 2.5625C20.2342 2.5625 20.654 2.98224 20.654 3.5V7.7002C20.6539 8.21787 20.2341 8.6377 19.7165 8.6377H16.567C16.5372 8.6377 16.5082 8.64973 16.487 8.6709C16.4661 8.69197 16.4538 8.7203 16.4538 8.75V10.9629H19.7165C20.0052 10.9629 20.278 11.0957 20.4557 11.3232C20.6332 11.5506 20.6964 11.8471 20.6266 12.127L19.5758 16.3271C19.4715 16.7445 19.0969 17.0371 18.6667 17.0371H16.4538V24.5C16.4538 25.0178 16.034 25.4375 15.5163 25.4375H11.317C10.7993 25.4375 10.3795 25.0177 10.3795 24.5V17.0371H8.16666C7.64889 17.0371 7.22916 16.6174 7.22916 16.0996V11.9004C7.22916 11.3826 7.64889 10.9629 8.16666 10.9629H10.3795V8.75C10.3795 7.10911 11.0309 5.53536 12.1911 4.375C13.3515 3.21462 14.926 2.5625 16.567 2.5625H19.7165ZM16.567 4.4375C15.4234 4.4375 14.326 4.89159 13.5172 5.7002C12.7086 6.50895 12.2545 7.60626 12.2545 8.75V11.9004C12.2543 12.4178 11.8345 12.8377 11.317 12.8379H9.10416V15.1621H11.317C11.8345 15.1623 12.2543 15.5822 12.2545 16.0996V23.5625H14.5788V16.0996C14.579 15.5822 14.9988 15.1623 15.5163 15.1621H17.9342L18.5163 12.8379H15.5163C14.9988 12.8377 14.579 12.4178 14.5788 11.9004V8.75C14.5788 8.22288 14.789 7.71746 15.1618 7.34473C15.5344 6.97211 16.04 6.7627 16.567 6.7627H18.779V4.4375H16.567Z" fill="white" stroke="white" stroke-width="0.125"/>
</svg>
