<svg width="28" height="28" viewBox="0 0 28 28" fill="none" xmlns="http://www.w3.org/2000/svg">
<path d="M17.78 14C17.78 11.9 16.1 10.22 14 10.22C11.9 10.22 10.22 11.9 10.22 14C10.22 16.1 11.9 17.78 14 17.78C16.1 17.78 17.78 16.1 17.78 14ZM19.74 14C19.74 17.22 17.22 19.7401 14 19.7401C10.78 19.7401 8.25999 17.22 8.25999 14C8.25999 10.78 10.78 8.26005 14 8.26005C17.22 8.26005 19.74 10.78 19.74 14ZM21.28 7.98005C21.28 8.82005 20.72 9.38005 19.88 9.38005C19.04 9.38005 18.48 8.82005 18.48 7.98005C18.48 7.14005 19.04 6.58005 19.88 6.58005C20.72 6.58005 21.28 7.28005 21.28 7.98005ZM14 4.76005C12.32 4.76005 8.81999 4.62005 7.41999 5.18005C6.43999 5.60005 5.59999 6.44005 5.31999 7.42005C4.75999 8.82005 4.89999 12.32 4.89999 14C4.89999 15.68 4.75999 19.18 5.31999 20.58C5.59999 21.56 6.43999 22.4001 7.41999 22.6801C8.81999 23.2401 12.46 23.1 14 23.1C15.54 23.1 19.18 23.2401 20.58 22.6801C21.56 22.2601 22.26 21.56 22.68 20.58C23.24 19.0401 23.1 15.54 23.1 14C23.1 12.46 23.24 8.82005 22.68 7.42005C22.4 6.44005 21.56 5.60005 20.58 5.32005C19.18 4.62005 15.68 4.76005 14 4.76005ZM25.2 14V18.6201C25.2 20.3001 24.64 21.9801 23.38 23.3801C22.12 24.6401 20.44 25.2001 18.62 25.2001H9.37999C7.69999 25.2001 6.01999 24.6401 4.61999 23.3801C3.49999 22.1201 2.79999 20.4401 2.79999 18.6201V14V9.38005C2.79999 7.56005 3.49999 5.88005 4.61999 4.62005C6.01999 3.50005 7.69999 2.80005 9.37999 2.80005H18.62C20.3 2.80005 21.98 3.36005 23.38 4.62005C24.5 5.88005 25.2 7.56005 25.2 9.38005V14Z" fill="white"/>
</svg>
