<svg width="12" height="12" viewBox="0 0 12 12" fill="none" xmlns="http://www.w3.org/2000/svg">
<g clip-path="url(#clip0_118_1145)">
<path fill-rule="evenodd" clip-rule="evenodd" d="M1.41337 0.384093C1.5446 0.253059 1.70218 0.151411 1.87567 0.085885C2.04916 0.0203588 2.23459 -0.0075494 2.41968 0.00400975C2.60476 0.0155689 2.78528 0.0663315 2.94927 0.152934C3.11325 0.239536 3.25696 0.36 3.37087 0.506343L4.71712 2.23584C4.96387 2.55309 5.05087 2.96634 4.95337 3.35634L4.54312 4.99884C4.52191 5.08391 4.52306 5.17303 4.54645 5.25752C4.56984 5.34202 4.61468 5.41904 4.67662 5.48109L6.51937 7.32384C6.5815 7.38591 6.65864 7.43082 6.74329 7.45422C6.82793 7.47761 6.91719 7.47869 7.00237 7.45734L8.64412 7.04709C8.83658 6.99897 9.03746 6.99523 9.23158 7.03616C9.4257 7.07709 9.60797 7.16161 9.76462 7.28334L11.4941 8.62884C12.1159 9.11259 12.1729 10.0313 11.6164 10.5871L10.8409 11.3626C10.2859 11.9176 9.45637 12.1613 8.68312 11.8891C6.70401 11.1927 4.90708 10.0597 3.42562 8.57409C1.94009 7.09285 0.807077 5.29619 0.110621 3.31734C-0.160879 2.54484 0.0828708 1.71459 0.637871 1.15959L1.41337 0.384093Z" fill="#E37828"/>
</g>
<defs>
<clipPath id="clip0_118_1145">
<rect width="12" height="12" fill="white"/>
</clipPath>
</defs>
</svg>
