<svg width="36" height="36" viewBox="0 0 36 36" fill="none" xmlns="http://www.w3.org/2000/svg">
<path d="M34.2776 27.2744L26.5019 19.499C24.968 17.9651 22.6771 17.6663 20.8311 18.576L13.7526 11.4978V7.37438L5.25308 1L1.00332 5.24959L7.37797 13.7488H11.5016L18.5801 20.827C17.677 22.6729 17.9692 24.9637 19.5031 26.4975L27.2788 34.2729C28.2483 35.2424 29.8154 35.2424 30.7782 34.2729L34.2776 30.7737C35.2405 29.8042 35.2405 28.2372 34.2776 27.2744ZM23.029 15.9399C24.9082 15.9399 26.6745 16.6703 28.0026 17.9983L29.2908 19.2865C30.34 18.8283 31.336 18.1909 32.1992 17.3277C34.6628 14.8643 35.4994 11.3982 34.7159 8.25085C34.5698 7.65326 33.8195 7.44742 33.3812 7.88566L28.4409 12.8258L23.9321 12.0755L23.1818 7.56694L28.1221 2.62679C28.5604 2.18856 28.3479 1.43824 27.7436 1.28552C24.5961 0.508642 21.1299 1.34528 18.673 3.80207C16.7806 5.69446 15.8908 8.19109 15.9373 10.6811L21.3889 16.1325C21.9268 16.0063 22.4845 15.9399 23.029 15.9399ZM16.1298 21.3847L12.3648 17.6199L2.24505 27.7458C0.584984 29.4058 0.584984 32.095 2.24505 33.755C3.90511 35.415 6.59442 35.415 8.25448 33.755L16.4618 25.548C15.9572 24.2266 15.8045 22.7858 16.1298 21.3847ZM5.25308 32.3407C4.37657 32.3407 3.65942 31.6236 3.65942 30.7471C3.65942 29.864 4.36993 29.1535 5.25308 29.1535C6.13624 29.1535 6.84675 29.864 6.84675 30.7471C6.84675 31.6236 6.13624 32.3407 5.25308 32.3407Z" fill="#E37828"/>
</svg>
