<svg width="36" height="35" viewBox="0 0 36 35" fill="none" xmlns="http://www.w3.org/2000/svg">
<path fill-rule="evenodd" clip-rule="evenodd" d="M18 7.05411L31.5 19.9071V28.9191C31.5 29.7713 31.1444 30.5886 30.5115 31.1912C29.8786 31.7938 29.0201 32.1323 28.125 32.1323H7.875C6.97989 32.1323 6.12145 31.7938 5.48851 31.1912C4.85558 30.5886 4.5 29.7713 4.5 28.9191V19.9071L18 7.05411ZM29.25 5.35538V12.8529L24.75 8.56862V5.35538C24.75 5.07131 24.8685 4.79888 25.0795 4.59801C25.2905 4.39715 25.5766 4.2843 25.875 4.2843H28.125C28.4234 4.2843 28.7095 4.39715 28.9205 4.59801C29.1315 4.79888 29.25 5.07131 29.25 5.35538Z" fill="#E37828"/>
<path fill-rule="evenodd" clip-rule="evenodd" d="M16.4093 3.21325C16.8312 2.81166 17.4034 2.58606 18 2.58606C18.5966 2.58606 19.1688 2.81166 19.5908 3.21325L34.5465 17.45C34.7578 17.6511 34.8764 17.9239 34.8764 18.2084C34.8764 18.4928 34.7578 18.7656 34.5465 18.9667C34.3353 19.1678 34.0488 19.2808 33.75 19.2808C33.4513 19.2808 33.1648 19.1678 32.9535 18.9667L18 4.72776L3.04652 18.9667C2.83527 19.1678 2.54876 19.2808 2.25002 19.2808C1.95127 19.2808 1.66476 19.1678 1.45352 18.9667C1.24227 18.7656 1.1236 18.4928 1.1236 18.2084C1.1236 17.9239 1.24227 17.6511 1.45352 17.45L16.4093 3.21325Z" fill="#E37828"/>
</svg>
