<svg width="36" height="36" viewBox="0 0 36 36" fill="none" xmlns="http://www.w3.org/2000/svg">
<path d="M3.375 33.75C3.07663 33.75 2.79048 33.8685 2.5795 34.0795C2.36853 34.2904 2.25 34.5766 2.25 34.875C2.25 35.1733 2.36853 35.4595 2.5795 35.6704C2.79048 35.8814 3.07663 36 3.375 36H32.625C32.9234 36 33.2095 35.8814 33.4205 35.6704C33.6315 35.4595 33.75 35.1733 33.75 34.875C33.75 34.5766 33.6315 34.2904 33.4205 34.0795C33.2095 33.8685 32.9234 33.75 32.625 33.75H29.25V5.62495C29.25 4.72985 28.8944 3.8714 28.2615 3.23847C27.6286 2.60553 26.7701 2.24995 25.875 2.24995H24.75V1.12495C24.75 0.963921 24.7154 0.804772 24.6486 0.658262C24.5817 0.511752 24.4842 0.381295 24.3626 0.27571C24.2411 0.170124 24.0982 0.0918706 23.9438 0.046238C23.7894 0.000605367 23.6269 -0.0113426 23.4675 0.0112017L7.7175 2.2612C7.44912 2.29915 7.20346 2.43272 7.0257 2.63735C6.84794 2.84197 6.75004 3.1039 6.75 3.37495V33.75H3.375ZM24.75 4.49995H25.875C26.1734 4.49995 26.4595 4.61848 26.6705 4.82946C26.8815 5.04043 27 5.32658 27 5.62495V33.75H24.75V4.49995ZM19.125 22.5C18.504 22.5 18 21.492 18 20.25C18 19.0079 18.504 18 19.125 18C19.746 18 20.25 19.0079 20.25 20.25C20.25 21.492 19.746 22.5 19.125 22.5Z" fill="#E37828"/>
</svg>
