<svg width="36" height="36" viewBox="0 0 36 36" fill="none" xmlns="http://www.w3.org/2000/svg">
<path d="M11.4059 7.2H24.5941C24.9121 7.2 25.217 7.07357 25.4419 6.84853C25.6667 6.62348 25.793 6.31826 25.793 6V3.6C25.793 2.64522 25.4141 1.72955 24.7396 1.05442C24.065 0.379284 23.1502 0 22.1963 0H13.8038C12.8498 0 11.935 0.379284 11.2604 1.05442C10.5859 1.72955 10.207 2.64522 10.207 3.6V6C10.207 6.31826 10.3333 6.62348 10.5581 6.84853C10.783 7.07357 11.0879 7.2 11.4059 7.2ZM31.1882 3H29.9893C29.9092 2.9947 29.8289 3.00658 29.7538 3.03486C29.6786 3.06314 29.6104 3.10715 29.5536 3.16396C29.4969 3.22077 29.4529 3.28906 29.4247 3.36426C29.3964 3.43946 29.3845 3.51983 29.3898 3.6V6C29.3898 7.27304 28.8846 8.49394 27.9852 9.39411C27.0858 10.2943 25.866 10.8 24.5941 10.8H11.4059C10.134 10.8 8.91418 10.2943 8.01481 9.39411C7.11544 8.49394 6.61018 7.27304 6.61018 6V3.6C6.61548 3.51983 6.6036 3.43946 6.57535 3.36426C6.5471 3.28906 6.50312 3.22077 6.44636 3.16396C6.3896 3.10715 6.32137 3.06314 6.24624 3.03486C6.17111 3.00658 6.09081 2.9947 6.01071 3H4.81179C3.85786 3 2.943 3.37928 2.26847 4.05442C1.59395 4.72955 1.215 5.64522 1.215 6.6V32.4C1.215 33.3548 1.59395 34.2705 2.26847 34.9456C2.943 35.6207 3.85786 36 4.81179 36H31.1882C32.1421 36 33.057 35.6207 33.7315 34.9456C34.4061 34.2705 34.785 33.3548 34.785 32.4V6.6C34.785 5.64522 34.4061 4.72955 33.7315 4.05442C33.057 3.37928 32.1421 3 31.1882 3ZM11.4059 28.8C11.4059 29.1183 11.2796 29.4235 11.0547 29.6485C10.8299 29.8736 10.5249 30 10.207 30H9.00804C8.69006 30 8.38511 29.8736 8.16026 29.6485C7.93542 29.4235 7.80911 29.1183 7.80911 28.8V27.6C7.80911 27.2817 7.93542 26.9765 8.16026 26.7515C8.38511 26.5264 8.69006 26.4 9.00804 26.4H10.207C10.5249 26.4 10.8299 26.5264 11.0547 26.7515C11.2796 26.9765 11.4059 27.2817 11.4059 27.6V28.8ZM11.4059 22.8C11.4059 23.1183 11.2796 23.4235 11.0547 23.6485C10.8299 23.8736 10.5249 24 10.207 24H9.00804C8.69006 24 8.38511 23.8736 8.16026 23.6485C7.93542 23.4235 7.80911 23.1183 7.80911 22.8V21.6C7.80911 21.2817 7.93542 20.9765 8.16026 20.7515C8.38511 20.5264 8.69006 20.4 9.00804 20.4H10.207C10.5249 20.4 10.8299 20.5264 11.0547 20.7515C11.2796 20.9765 11.4059 21.2817 11.4059 21.6V22.8ZM11.4059 16.8C11.4059 17.1183 11.2796 17.4235 11.0547 17.6485C10.8299 17.8736 10.5249 18 10.207 18H9.00804C8.69006 18 8.38511 17.8736 8.16026 17.6485C7.93542 17.4235 7.80911 17.1183 7.80911 16.8V15.6C7.80911 15.2817 7.93542 14.9765 8.16026 14.7515C8.38511 14.5264 8.69006 14.4 9.00804 14.4H10.207C10.5249 14.4 10.8299 14.5264 11.0547 14.7515C11.2796 14.9765 11.4059 15.2817 11.4059 15.6V16.8ZM28.1909 28.8C28.1909 29.1183 28.0646 29.4235 27.8397 29.6485C27.6149 29.8736 27.3099 30 26.992 30H15.0027C14.6847 30 14.3798 29.8736 14.1549 29.6485C13.9301 29.4235 13.8038 29.1183 13.8038 28.8V27.6C13.8038 27.2817 13.9301 26.9765 14.1549 26.7515C14.3798 26.5264 14.6847 26.4 15.0027 26.4H26.992C27.3099 26.4 27.6149 26.5264 27.8397 26.7515C28.0646 26.9765 28.1909 27.2817 28.1909 27.6V28.8ZM28.1909 22.8C28.1909 23.1183 28.0646 23.4235 27.8397 23.6485C27.6149 23.8736 27.3099 24 26.992 24H15.0027C14.6847 24 14.3798 23.8736 14.1549 23.6485C13.9301 23.4235 13.8038 23.1183 13.8038 22.8V21.6C13.8038 21.2817 13.9301 20.9765 14.1549 20.7515C14.3798 20.5264 14.6847 20.4 15.0027 20.4H26.992C27.3099 20.4 27.6149 20.5264 27.8397 20.7515C28.0646 20.9765 28.1909 21.2817 28.1909 21.6V22.8ZM28.1909 16.8C28.1909 17.1183 28.0646 17.4235 27.8397 17.6485C27.6149 17.8736 27.3099 18 26.992 18H15.0027C14.6847 18 14.3798 17.8736 14.1549 17.6485C13.9301 17.4235 13.8038 17.1183 13.8038 16.8V15.6C13.8038 15.2817 13.9301 14.9765 14.1549 14.7515C14.3798 14.5264 14.6847 14.4 15.0027 14.4H26.992C27.3099 14.4 27.6149 14.5264 27.8397 14.7515C28.0646 14.9765 28.1909 15.2817 28.1909 15.6V16.8Z" fill="#E37828"/>
</svg>
