<svg width="36" height="36" viewBox="0 0 36 36" fill="none" xmlns="http://www.w3.org/2000/svg">
<path fill-rule="evenodd" clip-rule="evenodd" d="M7.8681 0C6.00286 0 4.4908 1.51103 4.4908 3.375V32.625C4.4908 34.4889 6.00286 36 7.8681 36H28.1319C29.9971 36 31.5092 34.4889 31.5092 32.625V3.375C31.5092 1.51103 29.9971 0 28.1319 0H7.8681ZM23.2992 9.79549C23.7387 9.35615 23.7387 8.64385 23.2992 8.20451C22.8595 7.76516 22.1467 7.76516 21.7069 8.20451L12.7009 17.2044C12.2612 17.6438 12.2612 18.3562 12.7009 18.7956C13.1405 19.2348 13.8534 19.2348 14.2931 18.7956L23.2992 9.79549ZM16.8742 10.125C16.8742 11.3676 15.8662 12.375 14.6227 12.375C13.3792 12.375 12.3712 11.3676 12.3712 10.125C12.3712 8.88237 13.3792 7.875 14.6227 7.875C15.8662 7.875 16.8742 8.88237 16.8742 10.125ZM21.3773 19.125C22.6208 19.125 23.6288 18.1177 23.6288 16.875C23.6288 15.6323 22.6208 14.625 21.3773 14.625C20.1338 14.625 19.1258 15.6323 19.1258 16.875C19.1258 18.1177 20.1338 19.125 21.3773 19.125ZM10.1196 24.75C10.1196 24.1288 10.6237 23.625 11.2454 23.625H24.7546C25.3763 23.625 25.8804 24.1288 25.8804 24.75C25.8804 25.3712 25.3763 25.875 24.7546 25.875H11.2454C10.6237 25.875 10.1196 25.3712 10.1196 24.75ZM11.2454 28.125C10.6237 28.125 10.1196 28.6288 10.1196 29.25C10.1196 29.8712 10.6237 30.375 11.2454 30.375H24.7546C25.3763 30.375 25.8804 29.8712 25.8804 29.25C25.8804 28.6288 25.3763 28.125 24.7546 28.125H11.2454Z" fill="#E37828"/>
</svg>
