<svg width="36" height="36" viewBox="0 0 36 36" fill="none" xmlns="http://www.w3.org/2000/svg">
<path d="M36 18C36 26.6985 27.9405 33.75 18 33.75C16.2172 33.7524 14.4418 33.5209 12.7192 33.0615C11.4052 33.7275 8.388 35.0055 3.312 35.838C2.862 35.91 2.52 35.442 2.69775 35.0235C3.49425 33.1425 4.21425 30.636 4.43025 28.35C1.674 25.5825 0 21.96 0 18C0 9.3015 8.0595 2.25 18 2.25C27.9405 2.25 36 9.3015 36 18ZM11.25 18C11.25 17.4033 11.0129 16.831 10.591 16.409C10.169 15.9871 9.59674 15.75 9 15.75C8.40326 15.75 7.83097 15.9871 7.40901 16.409C6.98705 16.831 6.75 17.4033 6.75 18C6.75 18.5967 6.98705 19.169 7.40901 19.591C7.83097 20.0129 8.40326 20.25 9 20.25C9.59674 20.25 10.169 20.0129 10.591 19.591C11.0129 19.169 11.25 18.5967 11.25 18ZM20.25 18C20.25 17.4033 20.0129 16.831 19.591 16.409C19.169 15.9871 18.5967 15.75 18 15.75C17.4033 15.75 16.831 15.9871 16.409 16.409C15.9871 16.831 15.75 17.4033 15.75 18C15.75 18.5967 15.9871 19.169 16.409 19.591C16.831 20.0129 17.4033 20.25 18 20.25C18.5967 20.25 19.169 20.0129 19.591 19.591C20.0129 19.169 20.25 18.5967 20.25 18ZM27 20.25C27.5967 20.25 28.169 20.0129 28.591 19.591C29.0129 19.169 29.25 18.5967 29.25 18C29.25 17.4033 29.0129 16.831 28.591 16.409C28.169 15.9871 27.5967 15.75 27 15.75C26.4033 15.75 25.831 15.9871 25.409 16.409C24.9871 16.831 24.75 17.4033 24.75 18C24.75 18.5967 24.9871 19.169 25.409 19.591C25.831 20.0129 26.4033 20.25 27 20.25Z" fill="#E37828"/>
</svg>
