<svg width="170" height="60" viewBox="0 0 170 60" fill="none" xmlns="http://www.w3.org/2000/svg">
<path d="M30.3378 30.1162L21.9188 22.0324L13.2839 30.1162H30.3378Z" fill="#FBF6F3"/>
<path d="M31.633 31.3925H11.8447L7.59927 35.3635H36.3102L31.633 31.3925Z" fill="#FBF6F3"/>
<path d="M38.325 37.349L37.4615 36.4981L6.376 36.4272L5.51251 37.349V40.8945H38.325V37.349Z" fill="#FBF6F3"/>
<path d="M38.325 46V41.7454H5.51251V46H38.325Z" fill="#FBF6F3"/>
<path d="M21.7911 19.6197L2.80479 37.1903L0 34.2026L5.32192 29.1519V17.6279H11.2192V23.8879L21.7911 14L42 32.9933L39.2671 35.9098L21.7911 19.6197Z" fill="#E37828"/>
<path d="M51.46 38L56.54 23.58H60.36L65.44 38H61.64L60.8 35.32H56.08L55.24 38H51.46ZM58.04 29L56.88 32.64H60L58.86 29L58.66 28.22C58.58 27.8333 58.52 27.4867 58.48 27.18C58.4533 26.86 58.44 26.4867 58.44 26.06C58.44 27.0067 58.3733 27.7267 58.24 28.22C58.1733 28.5667 58.1067 28.8267 58.04 29ZM65.6711 38V23.58H70.6911C71.4778 23.58 72.1044 23.62 72.5711 23.7C73.6644 23.9 74.5111 24.4067 75.1111 25.22C75.7244 26.02 76.0311 27.0533 76.0311 28.32C76.0311 29.8133 75.6178 30.9533 74.7911 31.74C73.9778 32.5267 72.7911 32.92 71.2311 32.92H69.3511V38H65.6711ZM69.3511 26.54V29.96H70.3711C70.9711 29.96 71.4444 29.8067 71.7911 29.5C72.1378 29.18 72.3111 28.7467 72.3111 28.2C72.3111 27.0933 71.6778 26.54 70.4111 26.54H69.3511ZM77.0383 38V23.58H85.5183V26.48H80.7183V29.08H84.8783V31.96H80.7183V35.1H85.6783V38H77.0383ZM85.8387 38L90.4988 30.32L86.4188 23.58H90.6388L92.0588 26.26C92.2588 26.6333 92.4188 27.0533 92.5388 27.52C92.6054 27.8533 92.6721 28.36 92.7388 29.04L92.9788 27.52C93.0321 27.2933 93.0988 27.0667 93.1788 26.84C93.2588 26.6133 93.3454 26.42 93.4388 26.26L94.8988 23.58H99.0788L94.9988 30.32L99.6588 38H95.3988L93.3788 34.16C93.0854 33.6 92.8588 32.7333 92.6988 31.56C92.6988 32.08 92.6388 32.5533 92.5188 32.98C92.4121 33.3933 92.2654 33.7867 92.0788 34.16L90.0988 38H85.8387ZM105.086 36.16L106.386 33.26C107.573 34.6333 108.779 35.32 110.006 35.32C110.526 35.32 110.966 35.18 111.326 34.9C111.686 34.62 111.866 34.2533 111.866 33.8C111.866 33.4533 111.706 33.16 111.386 32.92C111.146 32.76 110.533 32.5133 109.546 32.18C108.346 31.78 107.506 31.38 107.026 30.98C106.119 30.22 105.666 29.22 105.666 27.98C105.666 26.66 106.166 25.5533 107.166 24.66C108.179 23.7533 109.446 23.3 110.966 23.3C112.593 23.3 114.026 23.8333 115.266 24.9L113.806 27.56C112.806 26.68 111.879 26.24 111.026 26.24C110.599 26.24 110.239 26.36 109.946 26.6C109.653 26.8267 109.506 27.12 109.506 27.48C109.506 27.8267 109.639 28.1133 109.906 28.34C110.093 28.5133 110.719 28.7733 111.786 29.12C112.866 29.4533 113.666 29.84 114.186 30.28C115.079 31.0133 115.526 32.04 115.526 33.36C115.526 34.8 115.026 35.9867 114.026 36.92C113.026 37.8533 111.726 38.32 110.126 38.32C108.126 38.32 106.446 37.6 105.086 36.16ZM116.765 38V23.58H120.445V38H116.765ZM122.019 38V23.58H126.759C127.599 23.58 128.399 23.66 129.159 23.82C130.665 24.14 131.879 24.92 132.799 26.16C133.719 27.4 134.179 28.8933 134.179 30.64C134.179 32.8 133.519 34.5667 132.199 35.94C130.879 37.3133 129.165 38 127.059 38H122.019ZM125.699 26.86V34.72H127.059C128.059 34.72 128.885 34.3467 129.539 33.6C130.192 32.8533 130.519 31.9067 130.519 30.76C130.519 29.64 130.172 28.7133 129.479 27.98C128.799 27.2333 127.939 26.86 126.899 26.86H125.699ZM135.417 38V23.58H139.097V38H135.417ZM140.671 38V23.58H144.391L149.431 30.86C149.578 31.0733 149.971 32.0267 150.611 33.72C150.278 32.0933 150.111 31.0533 150.111 30.6V23.58H153.791V38H150.171L144.971 30.52C144.864 30.3467 144.624 29.82 144.251 28.94L143.791 27.7L143.871 28.16L144.051 29.02C144.251 29.98 144.351 30.5533 144.351 30.74V38H140.671ZM169.018 26.8L165.618 28.46C164.764 27.1267 163.724 26.46 162.498 26.46C161.444 26.46 160.564 26.9 159.858 27.78C159.164 28.6467 158.818 29.7133 158.818 30.98C158.818 32.2333 159.171 33.26 159.878 34.06C160.598 34.86 161.511 35.26 162.618 35.26C163.418 35.26 164.078 35.0467 164.598 34.62C165.131 34.1933 165.498 33.5933 165.698 32.82H162.178V29.8H169.778L169.798 30.9C169.798 31.58 169.704 32.2667 169.518 32.96C169.078 34.6533 168.238 35.9667 166.998 36.9C165.771 37.8333 164.244 38.3 162.418 38.3C160.258 38.3 158.491 37.6067 157.118 36.22C155.744 34.82 155.058 33.0333 155.058 30.86C155.058 28.66 155.758 26.8533 157.158 25.44C158.571 24.0133 160.391 23.3 162.618 23.3C164.578 23.3 166.251 23.9133 167.638 25.14C168.078 25.54 168.538 26.0933 169.018 26.8Z" fill="#E37828"/>
</svg>
