<svg width="36" height="36" fill="none" xmlns="http://www.w3.org/2000/svg"><path d="M34.278 27.274 26.502 19.5c-1.534-1.534-3.825-1.833-5.67-.923l-7.08-7.078V7.374L5.254 1l-4.25 4.25 6.375 8.499h4.124l7.078 7.078c-.903 1.846-.61 4.137.923 5.67l7.776 7.776c.97.97 2.536.97 3.5 0l3.499-3.5a2.48 2.48 0 0 0 0-3.499ZM23.029 15.94c1.88 0 3.645.73 4.974 2.058l1.288 1.288a9.399 9.399 0 0 0 2.908-1.958 9.549 9.549 0 0 0 2.517-9.077.795.795 0 0 0-1.335-.365l-4.94 4.94-4.509-.75-.75-4.51 4.94-4.94c.438-.437.226-1.188-.378-1.34a9.566 9.566 0 0 0-9.071 2.516c-1.892 1.892-2.782 4.39-2.736 6.88l5.452 5.45a7.232 7.232 0 0 1 1.64-.192Zm-6.9 5.445-3.764-3.765-10.12 10.126a4.248 4.248 0 0 0 0 6.009 4.248 4.248 0 0 0 6.01 0l8.207-8.207c-.505-1.321-.657-2.762-.332-4.163ZM5.254 32.34a1.598 1.598 0 0 1-1.594-1.594c0-.883.71-1.593 1.594-1.593a1.594 1.594 0 0 1 0 3.187Z" fill="#E37828"/></svg>