<svg width="36" height="35" fill="none" xmlns="http://www.w3.org/2000/svg"><path fill-rule="evenodd" clip-rule="evenodd" d="m18 7.054 13.5 12.853v9.012a3.14 3.14 0 0 1-.988 2.272 3.463 3.463 0 0 1-2.387.941H7.875a3.463 3.463 0 0 1-2.386-.94 3.137 3.137 0 0 1-.989-2.273v-9.012L18 7.054Zm11.25-1.699v7.498l-4.5-4.284V5.355c0-.284.119-.556.33-.757.21-.2.497-.314.795-.314h2.25c.298 0 .584.113.796.314.21.2.329.473.329.757Z" fill="#E37828"/><path fill-rule="evenodd" clip-rule="evenodd" d="M16.41 3.213A2.309 2.309 0 0 1 18 2.586a2.31 2.31 0 0 1 1.59.627L34.548 17.45c.21.201.33.474.33.758 0 .285-.12.558-.33.759a1.156 1.156 0 0 1-.797.314c-.299 0-.585-.113-.797-.314L18 4.727 3.047 18.968a1.156 1.156 0 0 1-.797.314c-.299 0-.585-.113-.796-.314a1.047 1.047 0 0 1-.33-.759c0-.284.118-.557.33-.758L16.409 3.213Z" fill="#E37828"/></svg>